<?xml version="1.0" encoding="iso-8859-1"?>
<!-- Generator: Adobe Illustrator 19.0.0, SVG Export Plug-In . SVG Version: 6.00 Build 0)  -->
<svg version="1.1" id="Capa_1" xmlns="http://www.w3.org/2000/svg" xmlns:xlink="http://www.w3.org/1999/xlink" x="0px" y="0px"
	 viewBox="0 0 496.941 496.941" style="enable-background:new 0 0 496.941 496.941;" xml:space="preserve">
<g>
	<g>
		<g>
			<path d="M125.741,265.788c24.094,0,43.671-19.576,43.671-42.918c0-23.341-19.576-42.918-43.671-42.918
				s-43.671,19.576-43.671,42.918C82.071,246.212,102.4,265.788,125.741,265.788z M125.741,194.259
				c15.812,0,28.612,12.8,28.612,27.859c0,15.812-12.8,27.859-28.612,27.859c-15.812,0-27.859-12.047-27.859-27.106
				C97.882,207.059,110.682,194.259,125.741,194.259z"/>
			<path d="M61.741,350.871h129.506c4.518,0,7.529-3.012,7.529-7.529v-32.376c0-21.082-17.318-37.647-37.647-37.647H92.612
				c-21.082,0-37.647,17.318-37.647,37.647v32.376C54.212,347.106,57.224,350.871,61.741,350.871z M69.271,310.212
				c0-12.8,10.541-22.588,22.588-22.588h68.518c12.8,0,22.588,10.541,22.588,22.588v24.847H69.271V310.212z"/>
			<path d="M469.082,129.506H300.424V61.741c0-28.612-23.341-51.953-51.953-51.953s-52.706,23.341-52.706,51.953v67.765H27.859
				C12.8,129.506,0,142.306,0,157.365v301.929c0,15.059,12.8,27.859,27.859,27.859h441.224c15.059,0,27.859-12.8,27.859-27.859
				V157.365C496.941,142.306,484.141,129.506,469.082,129.506z M210.824,61.741c0-20.329,17.318-36.894,37.647-36.894
				s36.894,16.565,36.894,36.894v106.918h-74.541C210.824,128,210.824,150.588,210.824,61.741z M481.882,459.294
				c0,6.776-6.023,12.8-12.8,12.8H27.859c-6.776,0-12.8-6.023-12.8-12.8V157.365c0-6.776,6.023-12.8,12.8-12.8h167.906v31.624
				c0,4.518,3.012,7.529,7.529,7.529h89.6c4.518,0,7.529-3.012,7.529-7.529v-31.624h168.659c6.776,0,12.8,6.023,12.8,12.8V459.294z"
				/>
			<path d="M248.471,36.894c-15.059,0-27.106,12.047-27.106,27.106s12.047,27.106,27.106,27.106
				c15.059,0,27.106-12.047,27.106-27.106S263.529,36.894,248.471,36.894z M248.471,76.047c-6.776,0-12.047-5.271-12.047-12.047
				s5.271-12.047,12.047-12.047S260.518,57.224,260.518,64S255.247,76.047,248.471,76.047z"/>
			<path d="M439.718,389.271H57.224c-4.518,0-7.529,3.012-7.529,7.529v39.906c0,4.518,3.012,7.529,7.529,7.529h382.494
				c4.518,0,7.529-3.012,7.529-7.529V396.8C447.247,392.282,443.482,389.271,439.718,389.271z M432.188,429.176H64.753v-24.847
				h367.435V429.176z"/>
			<path d="M439.718,231.906H248.471c-4.518,0-7.529,3.012-7.529,7.529s3.012,7.529,7.529,7.529h191.247
				c4.518,0,7.529-3.012,7.529-7.529S443.482,231.906,439.718,231.906z"/>
			<path d="M439.718,281.6H248.471c-4.518,0-7.529,3.012-7.529,7.529s3.012,7.529,7.529,7.529h191.247
				c4.518,0,7.529-3.012,7.529-7.529S443.482,281.6,439.718,281.6z"/>
			<path d="M439.718,332.047H248.471c-4.518,0-7.529,3.012-7.529,7.529s3.012,7.529,7.529,7.529h191.247
				c4.518,0,7.529-3.012,7.529-7.529S443.482,332.047,439.718,332.047z"/>
		</g>
	</g>
</g>
<g>
</g>
<g>
</g>
<g>
</g>
<g>
</g>
<g>
</g>
<g>
</g>
<g>
</g>
<g>
</g>
<g>
</g>
<g>
</g>
<g>
</g>
<g>
</g>
<g>
</g>
<g>
</g>
<g>
</g>
</svg>
