<?xml version="1.0" encoding="iso-8859-1"?>
<!-- Generator: Adobe Illustrator 18.1.1, SVG Export Plug-In . SVG Version: 6.00 Build 0)  -->
<svg version="1.1" id="Capa_1" xmlns="http://www.w3.org/2000/svg" xmlns:xlink="http://www.w3.org/1999/xlink" x="0px" y="0px"
	 viewBox="0 0 386.506 386.506" style="enable-background:new 0 0 386.506 386.506;" xml:space="preserve">
<g>
	<path style="fill:#010002;" d="M70.833,367.755c-0.52,3.048,0.732,6.129,3.235,7.95c2.512,1.829,5.82,2.065,8.559,0.618
		l110.622-58.16l110.622,58.16c1.187,0.626,2.487,0.935,3.78,0.935c1.683,0,3.365-0.52,4.78-1.553
		c2.504-1.821,3.755-4.902,3.235-7.95l-19.631-114.499c-0.764-4.422-4.902-7.397-9.388-6.633c-4.422,0.756-7.397,4.958-6.641,9.38
		l16.851,98.266l-99.827-52.486c-2.365-1.252-5.202-1.252-7.568,0l-99.827,52.486l19.062-111.175
		c0.447-2.634-0.423-5.324-2.341-7.194l-80.757-78.733l94.186-13.68c4.446-0.642,7.519-4.771,6.877-9.21
		c-0.65-4.446-4.804-7.592-9.21-6.877L6.967,143.455c-3.064,0.447-5.609,2.585-6.568,5.536c-0.959,2.934-0.154,6.17,2.057,8.324
		l89.496,87.244L70.833,367.755z"/>
	<path style="fill:#010002;" d="M379.54,143.455l-123.684-17.972L200.549,13.414c-2.739-5.56-11.843-5.56-14.583,0l-50.226,101.778
		c-1.983,4.024-0.333,8.901,3.699,10.884c4.032,2,8.901,0.341,10.884-3.69l42.935-87.008l49.909,101.136
		c1.187,2.398,3.471,4.064,6.121,4.446l111.622,16.217l-68.63,66.898c-3.211,3.129-3.276,8.283-0.146,11.494
		c1.593,1.634,3.707,2.455,5.82,2.455c2.04,0,4.089-0.772,5.674-2.309l80.424-78.4c2.211-2.162,3.016-5.389,2.057-8.324
		C385.149,146.048,382.604,143.902,379.54,143.455z"/>
</g>
<g>
</g>
<g>
</g>
<g>
</g>
<g>
</g>
<g>
</g>
<g>
</g>
<g>
</g>
<g>
</g>
<g>
</g>
<g>
</g>
<g>
</g>
<g>
</g>
<g>
</g>
<g>
</g>
<g>
</g>
</svg>
